<svg xmlns="http://www.w3.org/2000/svg" width="1640" height="720" viewBox="0 0 1640 720" role="img" aria-labelledby="title desc">
  <title id="title">خلفية ملتقى سرت الاقتصادي لرجال الأعمال 2026 ليبيا</title>
  <desc id="desc">خلفية زرقاء داكنة تضم هوية ملتقى سرت الاقتصادي وشكلاً هندسياً أحمر ونقوشاً سداسية.</desc>
  <defs>
    <linearGradient id="bg" x1="0" y1="0" x2="1" y2="1">
      <stop offset="0" stop-color="#071d32"/>
      <stop offset="0.52" stop-color="#0b263d"/>
      <stop offset="1" stop-color="#0d314b"/>
    </linearGradient>
    <linearGradient id="red" x1="0" y1="0" x2="1" y2="1">
      <stop offset="0" stop-color="#f22b25"/>
      <stop offset="1" stop-color="#9f111c"/>
    </linearGradient>
    <linearGradient id="redDark" x1="0" y1="0" x2="1" y2="1">
      <stop offset="0" stop-color="#c71922"/>
      <stop offset="1" stop-color="#7f0d15"/>
    </linearGradient>
    <filter id="softShadow" x="-20%" y="-20%" width="140%" height="140%">
      <feDropShadow dx="0" dy="18" stdDeviation="18" flood-color="#000" flood-opacity="0.28"/>
    </filter>
    <pattern id="hex" width="132" height="114" patternUnits="userSpaceOnUse">
      <path d="M33 2 L99 2 L130 57 L99 112 L33 112 L2 57 Z" fill="none" stroke="#b7a46d" stroke-opacity="0.12" stroke-width="3"/>
    </pattern>
  </defs>

  <rect width="1640" height="720" fill="url(#bg)"/>
  <rect width="1640" height="720" fill="#06192a" opacity="0.38"/>
  <rect x="980" y="0" width="660" height="720" fill="url(#hex)" opacity="0.72"/>

  <g opacity="0.2" fill="#9cb6c9">
    <rect x="520" y="390" width="410" height="210" rx="8"/>
    <rect x="565" y="435" width="34" height="118" rx="18" fill="#d8e6ef" opacity="0.38"/>
    <rect x="630" y="435" width="34" height="118" rx="18" fill="#d8e6ef" opacity="0.38"/>
    <rect x="695" y="435" width="34" height="118" rx="18" fill="#d8e6ef" opacity="0.38"/>
    <rect x="760" y="435" width="34" height="118" rx="18" fill="#d8e6ef" opacity="0.38"/>
    <rect x="825" y="435" width="34" height="118" rx="18" fill="#d8e6ef" opacity="0.38"/>
    <path d="M1185 318 h46 v250 h-46z"/>
    <path d="M1193 270 h30 v54 h-30z"/>
    <path d="M1208 190 l34 82 h-68z"/>
    <path d="M1310 358 h58 v210 h-58z"/>
    <path d="M1320 300 h38 v62 h-38z"/>
  </g>

  <g transform="translate(0 178)" filter="url(#softShadow)">
    <polygon points="0,62 156,0 312,62 312,186 156,248 0,186" fill="url(#red)" opacity="0.96"/>
    <polygon points="156,0 312,62 156,124 0,62" fill="#ed2024"/>
    <polygon points="0,62 156,124 156,248 0,186" fill="#d71920"/>
    <polygon points="312,62 156,124 156,248 312,186" fill="#9f1019"/>
    <polygon points="150,28 220,62 150,96 80,62" fill="#0b263d"/>
    <polygon points="0,292 158,230 316,292 316,416 158,478 0,416" fill="url(#redDark)" opacity="0.94"/>
    <polygon points="316,292 474,230 632,292 632,416 474,478 316,416" fill="url(#red)" opacity="0.94"/>
    <polygon points="632,416 790,354 948,416 948,540 790,602 632,540" fill="url(#red)" opacity="0.94"/>
    <polygon points="118,185 220,227 118,269 16,227" fill="#e0151b"/>
    <polygon points="394,185 496,227 394,269 292,227" fill="#e31a1f"/>
  </g>

  <g transform="translate(820 80)" filter="url(#softShadow)">
    <polygon points="0,32 52,0 104,32 104,94 52,126 0,94" fill="url(#red)"/>
    <polygon points="52,18 88,38 52,58 16,38" fill="#0b263d"/>
    <polygon points="52,52 78,66 52,112 26,66" fill="#0b263d" opacity="0.95"/>
  </g>

  <g transform="translate(825 220)" text-anchor="middle">
    <text x="0" y="0" font-family="Cairo, Tahoma, Arial, sans-serif" font-size="50" font-weight="900" fill="#f6f8f8">ملتقى سرت الاقتصادي</text>
    <text x="0" y="58" font-family="Cairo, Tahoma, Arial, sans-serif" font-size="42" font-weight="600" fill="#f6f8f8">لرجال الأعمال</text>
    <text x="0" y="112" font-family="Cairo, Tahoma, Arial, sans-serif" font-size="34" font-weight="500" fill="#f6f8f8">2026  |  ليبيا</text>
  </g>

  <g transform="translate(540 535)" opacity="0.92" fill="#f6f8f8">
    <circle cx="36" cy="36" r="34" fill="none" stroke="#f6f8f8" stroke-width="7"/>
    <circle cx="36" cy="36" r="16" fill="none" stroke="#f6f8f8" stroke-width="7"/>
    <text x="90" y="28" font-family="Cairo, Tahoma, Arial, sans-serif" font-size="23" font-weight="700">الاتحاد العام لغرف التجارة</text>
    <text x="90" y="58" font-family="Cairo, Tahoma, Arial, sans-serif" font-size="23" font-weight="700">والصناعة والزراعة ليبيا</text>
  </g>

  <g transform="translate(925 540)" opacity="0.92" fill="#f6f8f8">
    <text x="0" y="0" font-family="Cairo, Tahoma, Arial, sans-serif" font-size="30" font-weight="800">الهيئة الوطنية للتنمية</text>
    <text x="0" y="32" font-family="Cairo, Tahoma, Arial, sans-serif" font-size="18" font-weight="600">NATIONAL DEVELOPMENT AGENCY</text>
    <rect x="260" y="-42" width="64" height="64" rx="8" fill="#f6f8f8" opacity="0.9"/>
    <rect x="267" y="-35" width="50" height="50" rx="6" fill="#2b8fc6"/>
    <circle cx="292" cy="-10" r="13" fill="#f6f8f8"/>
    <path d="M300 -22 l5 10 11 1-8 7 2 11-10-5-10 5 2-11-8-7 11-1z" fill="#f6f8f8"/>
  </g>

  <rect width="1640" height="720" fill="#071d32" opacity="0.18"/>
</svg>